<?xml version="1.0" encoding="UTF-8"?>
<svg width="119px" height="114px" viewBox="0 0 119 114" version="1.1" xmlns="http://www.w3.org/2000/svg" xmlns:xlink="http://www.w3.org/1999/xlink">
    <!-- Generator: Sketch 45.2 (43514) - http://www.bohemiancoding.com/sketch -->
    <title>Page 1</title>
    <desc>Created with Sketch.</desc>
    <defs></defs>
    <g id="Page-1" stroke="none" stroke-width="1" fill="none" fill-rule="evenodd">
        <g id="Landing_Page_Desktop-HD" transform="translate(-515.000000, -1432.000000)" fill="#2D5960">
            <g id="Page-1" transform="translate(515.000000, 1432.000000)">
                <path d="M30.4124697,90.6266098 L89.7818627,90.6266098 L89.7818627,87.8267805 L30.4124697,87.8267805 L30.4124697,90.6266098 Z M84.1816025,74.8642439 C84.1816025,74.8642439 82.9858904,78.1033659 82.069757,84.4954146 L85.0377133,84.4954146 C85.9111991,78.600122 86.9371106,75.8146585 86.9371106,75.8146585 L84.1816025,74.8642439 Z M30.5238273,71.7377805 L28.2287552,73.4836098 C28.2287552,73.4836098 29.9046475,75.5046585 31.4225858,78.2031707 C32.5393208,80.189439 33.4807268,82.5242683 33.703442,84.4954146 L36.6848244,84.4954146 C36.5055466,81.7969024 35.2608688,79.1104878 34.0035547,76.8747073 C32.3481964,73.9319756 30.5238273,71.7377805 30.5238273,71.7377805 L30.5238273,71.7377805 Z M63.908992,66.4897073 C63.908992,66.4897073 62.0435548,69.106561 60.2144471,72.6231707 C58.3956064,76.120878 56.5388567,80.4979268 56.6636404,84.4954146 L58.6151625,84.4954146 L59.5905287,84.4629024 C59.4791711,81.4112927 61.1029385,77.2043659 62.8356943,73.8714878 C64.56845,70.5393659 66.3288478,68.0722195 66.3288478,68.0722195 L63.908992,66.4897073 Z M71.2886044,60.473439 L68.7905614,61.9387561 C73.8545677,69.8475366 76.0406515,77.298878 75.0629161,84.3283171 L76.3763039,84.4954146 L77.9898043,84.4954146 C79.0093976,76.7287805 76.5397863,68.6748293 71.2886044,60.473439 L71.2886044,60.473439 Z M19.9732876,55.1013659 L19.6163115,57.8875854 C19.3785907,57.8596098 20.1225542,58.0879512 20.9265402,58.6353659 C21.731316,59.1827805 22.7611763,59.9918049 23.9023942,60.9853171 C26.1832505,62.9730976 28.9134859,65.7033659 31.4028415,68.6506341 C33.8906175,71.5979024 36.1383035,74.7765366 37.4745946,77.5975366 C38.8108857,80.4185366 39.1196858,82.7692439 38.4191597,84.1476098 L38.8795957,84.3615854 C38.8772264,84.3903171 38.8748571,84.4394634 38.8709082,84.4954146 L41.4092296,84.4954146 C42.2092668,82.0592683 41.4810987,79.2624634 40.1440178,76.4391951 C38.6434544,73.2696341 36.2733542,69.9556585 33.682908,66.8866585 C31.0924618,63.8176585 28.28088,61.0087561 25.8744503,58.9120976 C24.6708406,57.8633902 23.5722703,56.9953902 22.6237563,56.350439 C21.6744526,55.7054878 21.0434262,55.226122 19.9732876,55.1013659 L19.9732876,55.1013659 Z M52.9146014,45.8172439 C52.6523977,47.4942683 52.3933531,49.0873659 52.1335187,50.8279024 C51.871315,52.591122 51.6399124,54.3724878 51.3895552,56.156122 C52.5181368,66.6537805 52.6287046,77.3109756 51.4985435,84.4273659 L51.9708261,84.4954146 L54.4404374,84.4954146 C55.647996,76.5344634 55.4308092,65.1370488 54.1111032,54.0443415 C53.7793997,51.2566098 53.379776,48.4960976 52.9146014,45.8172439 L52.9146014,45.8172439 Z M73.1682574,33.9797805 C63.7305039,49.8253171 60.9860525,62.0045366 57.7416767,74.2495366 L57.7969606,74.2639024 C58.1602549,73.485122 58.5290776,72.710878 58.9010593,71.9956098 C60.7775532,68.386 62.6982743,65.6980732 62.6982743,65.6980732 L62.9841711,65.8840732 C65.5398674,56.6165854 68.7502831,47.0617805 75.7144765,35.3687317 L73.1682574,33.9797805 Z M96.7239425,29.2624878 C89.4975455,41.2042927 83.0111631,53.901439 81.2515551,69.9851463 L84.1673866,70.2777561 C85.8661822,54.7512927 92.103787,42.493439 99.2591048,30.6680732 L96.7239425,29.2624878 Z M46.8720698,25.3648049 L44.256351,26.6305122 C45.751386,29.465122 47.0955748,33.4127073 48.2423211,37.951561 C48.6214108,35.6583171 49.0044493,33.3590244 49.3298346,31.4876829 C49.3432607,31.4098049 49.3503686,31.3772927 49.3637947,31.3009268 C48.603246,29.0832927 47.7739874,27.0758537 46.8720698,25.3648049 L46.8720698,25.3648049 Z M25.8507572,24.6797805 L23.6188667,26.4929024 C35.2276984,39.5990976 38.2983249,58.7366829 38.9538341,71.4912927 C39.9141946,72.9407317 40.7876804,74.4022683 41.4779396,75.8607805 C41.6990752,76.3280488 41.9044155,76.8006098 42.0955398,77.2739268 C42.1476647,64.9775122 40.2285232,40.9109268 25.8507572,24.6797805 L25.8507572,24.6797805 Z M52.410728,23.1373415 C52.2875239,23.374 52.3167454,23.3694634 52.3056886,23.4080244 C52.2946318,23.4473415 52.2859444,23.4730488 52.2796262,23.4987561 C52.2669899,23.5509268 52.2583024,23.5978049 52.2448763,23.6575366 C52.2196037,23.777 52.1872231,23.9327561 52.1477346,24.1316098 C52.0703371,24.528561 51.9629284,25.0918537 51.830247,25.8056098 C51.565674,27.233122 51.2008001,29.2609756 50.7743242,31.7167805 C49.9213725,36.6291463 48.8204328,43.2578537 47.7810953,50.2336098 C46.7417578,57.2078537 45.7648121,64.526878 45.1543197,70.8289512 C44.6030601,76.5291707 44.3305894,81.3099756 44.648077,84.4954146 L47.6184026,84.4954146 C47.3143411,81.8566341 47.5030962,76.9457805 48.0701512,71.0860244 C48.6735356,64.8603171 49.6473222,57.5775854 50.6827109,50.630561 C51.7180996,43.6827805 52.8150904,37.0691951 53.6640933,32.1749756 C54.0889897,29.7267317 54.4522839,27.7102195 54.7144876,26.295561 C54.8455895,25.5886098 54.9514187,25.032122 55.0264468,24.652561 C55.0643558,24.4627805 55.0959466,24.3160976 55.1149011,24.2246098 C55.1227988,24.1920976 55.1235886,24.18 55.1267477,24.164122 C55.1227988,24.1830244 55.1504408,24.1663902 55.032765,24.3917073 L52.410728,23.1373415 Z" id="Fill-1"></path>
                <path d="M81.5846802,84.8351293 C81.6194301,76.6246659 80.3376331,60.5553244 70.7379767,49.717422 L69.2476803,50.9279341 C76.9984848,59.6790073 79.0763701,76.5233488 79.5146926,85.0400317" id="Fill-3"></path>
                <path d="M59.4148048,2.26836829 C27.9598385,2.26836829 2.3697054,26.7674415 2.3697054,56.8812951 C2.3697054,86.9959049 27.9598385,111.495734 59.4148048,111.495734 C90.8697711,111.495734 116.460694,86.9959049 116.460694,56.8812951 C116.460694,26.7674415 90.8697711,2.26836829 59.4148048,2.26836829 M59.4148048,113.764027 C26.6535586,113.764027 0.000394885085,88.2464902 0.000394885085,56.8812951 C0.000394885085,25.5168561 26.6535586,7.56097561e-05 59.4148048,7.56097561e-05 C92.176051,7.56097561e-05 118.830004,25.5168561 118.830004,56.8812951 C118.830004,88.2464902 92.176051,113.764027 59.4148048,113.764027" id="Fill-4"></path>
            </g>
        </g>
    </g>
</svg>