<?xml version="1.0" encoding="UTF-8"?>
<svg width="119px" height="114px" viewBox="0 0 119 114" version="1.1" xmlns="http://www.w3.org/2000/svg" xmlns:xlink="http://www.w3.org/1999/xlink">
    <!-- Generator: Sketch 45.2 (43514) - http://www.bohemiancoding.com/sketch -->
    <title>Page 1</title>
    <desc>Created with Sketch.</desc>
    <defs>
        <polygon id="path-1" points="0 113.763951 118.830399 113.763951 118.830399 0 0 0"></polygon>
    </defs>
    <g id="Page-1" stroke="none" stroke-width="1" fill="none" fill-rule="evenodd">
        <g id="Landing_Page_Desktop-HD" transform="translate(-1134.000000, -1432.000000)">
            <g id="Page-1" transform="translate(1134.000000, 1432.000000)">
                <path d="M39.878418,28.368478 C40.727421,28.368478 41.4153108,29.0277951 41.4153108,29.8398439 C41.4153108,30.6526488 40.727421,31.3119659 39.878418,31.3119659 C39.0294151,31.3119659 38.3415253,30.6526488 38.3415253,29.8398439 C38.3415253,29.0277951 39.0294151,28.368478 39.878418,28.368478 Z" id="Fill-1" fill="#2D5960"></path>
                <path d="M67.6788019,28.368478 C68.5278048,28.368478 69.2156947,29.0277951 69.2156947,29.8398439 C69.2156947,30.6526488 68.5278048,31.3119659 67.6788019,31.3119659 C66.829799,31.3119659 66.1419092,30.6526488 66.1419092,29.8398439 C66.1419092,29.0277951 66.829799,28.368478 67.6788019,28.368478" id="Fill-3" fill="#2D5960"></path>
                <path d="M73.3148388,28.368478 C74.1638417,28.368478 74.8517315,29.0277951 74.8517315,29.8398439 C74.8517315,30.6526488 74.1638417,31.3119659 73.3148388,31.3119659 C72.4658358,31.3119659 71.777946,30.6526488 71.777946,29.8398439 C71.777946,29.0277951 72.4658358,28.368478 73.3148388,28.368478" id="Fill-5" fill="#2D5960"></path>
                <path d="M78.9519813,28.368478 C79.8009842,28.368478 80.4888741,29.0277951 80.4888741,29.8398439 C80.4888741,30.6526488 79.8009842,31.3119659 78.9519813,31.3119659 C78.1029784,31.3119659 77.4150886,30.6526488 77.4150886,29.8398439 C77.4150886,29.0277951 78.1029784,28.368478 78.9519813,28.368478" id="Fill-7" fill="#2D5960"></path>
                <mask id="mask-2" fill="white">
                    <use xlink:href="#path-1"></use>
                </mask>
                <g id="Clip-10"></g>
                <path d="M34.0935885,83.3831951 L84.7360211,83.3831951 L84.7360211,36.6518293 L34.0935885,36.6518293 L34.0935885,83.3831951 Z M34.0943783,33.9465122 L84.7368109,33.9465122 L84.7368109,25.7330244 L34.0943783,25.7330244 L34.0943783,33.9465122 Z M86.1497097,23.0269512 L32.6806896,23.0269512 C31.9003967,23.0269512 31.267001,23.6325854 31.267001,24.3803659 L31.267001,35.3006829 L31.267001,84.7373659 C31.267001,85.4859024 31.9003967,86.0907805 32.6806896,86.0907805 L36.1272467,86.0907805 L36.1272467,89.3835854 C36.1272467,90.1313659 36.7598526,90.737 37.5401455,90.737 C38.3204384,90.737 38.9538341,90.1313659 38.9538341,89.3835854 L38.9538341,86.0892683 L79.8765653,86.0892683 L79.8765653,89.3835854 C79.8765653,90.1313659 80.5099609,90.737 81.2902539,90.737 C82.0705468,90.737 82.7039425,90.1313659 82.7039425,89.3835854 L82.7039425,86.0892683 L86.1497097,86.0892683 C86.9300026,86.0892683 87.5633983,85.4851463 87.5633983,84.7366098 L87.5633983,35.2991707 L87.5633983,24.3803659 C87.5633983,23.6325854 86.9300026,23.0269512 86.1497097,23.0269512 L86.1497097,23.0269512 Z" id="Fill-9" fill="#2D5960" mask="url(#mask-2)"></path>
                <path d="M59.4151997,46.5820366 C66.1961664,46.5820366 71.8682957,51.2108659 73.1682574,57.342061 C71.6898077,57.6437439 70.7523505,58.3590122 69.9673189,58.9638902 C69.0859354,59.644378 68.4493807,60.1365976 67.0420102,60.1365976 C65.63385,60.1365976 64.9965055,59.644378 64.1159117,58.9638902 C63.0931594,58.1745244 61.8200498,57.1931098 59.4151997,57.1931098 C57.0103495,57.1931098 55.7380298,58.1760366 54.7160672,58.9638902 C53.8338939,59.644378 53.1973391,60.1365976 51.7899687,60.1365976 C50.3825982,60.1365976 49.7460435,59.644378 48.86466,58.9638902 C48.0796284,58.3590122 47.142961,57.6437439 45.6645112,57.3405488 C46.9621036,51.2108659 52.634233,46.5820366 59.4151997,46.5820366 M59.4151997,73.4537439 C51.6944065,73.4537439 45.4117848,67.4533537 45.3833531,60.0670366 C46.0349135,60.2651341 46.5111449,60.6265488 47.0884669,61.0718902 C48.1112192,61.8612561 49.383539,62.8426707 51.7875994,62.8426707 C54.1940291,62.8426707 55.4663488,61.8605 56.4883114,61.070378 C57.3704847,60.3906463 58.0062497,59.8984268 59.4136201,59.8984268 C60.8209906,59.8984268 61.4583351,60.3906463 62.3397186,61.070378 C63.3616812,61.8605 64.6347907,62.8419146 67.0396409,62.8419146 C69.4444911,62.8419146 70.7183904,61.8589878 71.740353,61.070378 C72.3168852,60.6250366 72.7931166,60.264378 73.4454668,60.0655244 C73.4186146,67.4533537 67.1359929,73.4537439 59.4151997,73.4537439 M59.4151997,76.1605732 C68.7123741,76.1605732 76.2767928,68.9186707 76.2767928,60.0186463 C76.2767928,51.1171098 68.7123741,43.8752073 59.4151997,43.8752073 C50.1180252,43.8752073 42.5536065,51.1171098 42.5536065,60.0186463 C42.5536065,68.9186707 50.1180252,76.1605732 59.4151997,76.1605732" id="Fill-11" fill="#2D5960" mask="url(#mask-2)"></path>
                <path d="M59.4151997,2.26836829 C27.9602333,2.26836829 2.36931051,26.7674415 2.36931051,56.8812951 C2.36931051,86.9959049 27.9602333,111.495734 59.4151997,111.495734 C90.870166,111.495734 116.461089,86.9959049 116.461089,56.8812951 C116.461089,26.7674415 90.870166,2.26836829 59.4151997,2.26836829 M59.4151997,113.764027 C26.6539535,113.764027 0,88.2464902 0,56.8812951 C0,25.5168561 26.6539535,7.56097561e-05 59.4151997,7.56097561e-05 C92.1764459,7.56097561e-05 118.830399,25.5168561 118.830399,56.8812951 C118.830399,88.2464902 92.1764459,113.764027 59.4151997,113.764027" id="Fill-12" fill="#2D5960" mask="url(#mask-2)"></path>
            </g>
        </g>
    </g>
</svg>