<?xml version="1.0" encoding="UTF-8"?>
<svg width="119px" height="115px" viewBox="0 0 119 115" version="1.1" xmlns="http://www.w3.org/2000/svg" xmlns:xlink="http://www.w3.org/1999/xlink">
    <!-- Generator: Sketch 45.2 (43514) - http://www.bohemiancoding.com/sketch -->
    <title>Page 1</title>
    <desc>Created with Sketch.</desc>
    <defs></defs>
    <g id="Page-1" stroke="none" stroke-width="1" fill="none" fill-rule="evenodd">
        <g id="Landing_Page_Desktop-HD" transform="translate(-816.000000, -1432.000000)" fill="#2D5960">
            <g id="Page-1" transform="translate(816.000000, 1432.000000)">
                <path d="M85.599082,69.0345805 C83.3190155,69.0345805 81.4638453,67.2585073 81.4638453,65.0748976 C81.4638453,62.8912878 83.3190155,61.1144585 85.599082,61.1144585 C87.880728,61.1144585 89.7351083,62.8912878 89.7351083,65.0748976 C89.7351083,67.2585073 87.880728,69.0345805 85.599082,69.0345805 M33.2302117,69.0345805 C30.9501452,69.0345805 29.0941853,67.2585073 29.0941853,65.0748976 C29.0941853,64.8042146 29.1234068,64.5403366 29.1786908,64.2847756 C29.1913271,64.2197512 29.2205486,64.1592634 29.2379235,64.0957512 C29.2884688,63.9067268 29.3405936,63.7184585 29.4179911,63.5415317 C29.4503717,63.4674341 29.5001272,63.4001415 29.5380362,63.3275561 C29.6193825,63.1710439 29.6975698,63.0122634 29.7986603,62.8686049 C29.9463474,62.6576537 30.1161479,62.4595561 30.3080621,62.2758244 C30.4991865,62.0920927 30.706896,61.9302878 30.9264521,61.7881415 C31.0772982,61.691361 31.2423602,61.6165073 31.4050529,61.5393854 C31.4816606,61.5030927 31.5511603,61.4562146 31.6293476,61.4244585 C31.8196822,61.3473366 32.0226531,61.295922 32.2256241,61.2460195 C32.2864364,61.2324098 32.3432998,61.2059463 32.4049019,61.1946049 C32.6710545,61.1424341 32.9482638,61.1144585 33.2302117,61.1144585 C33.5137392,61.1144585 33.789369,61.1424341 34.0571011,61.1946049 C34.1179134,61.2059463 34.1755666,61.2324098 34.2363789,61.2460195 C34.4393499,61.295922 34.6423208,61.3473366 34.8326554,61.4244585 C34.9100529,61.4562146 34.9803424,61.5030927 35.0569501,61.5393854 C35.2196428,61.6165073 35.3847048,61.691361 35.5347611,61.7881415 C35.755107,61.9302878 35.9620268,62.0920927 36.1539409,62.2758244 C36.3458551,62.4595561 36.5156556,62.6576537 36.6633427,62.8686049 C36.7644332,63.0122634 36.8426205,63.1710439 36.9239668,63.3275561 C36.9618758,63.4001415 37.0116313,63.4674341 37.0440119,63.5415317 C37.1214094,63.7184585 37.1735342,63.9067268 37.2232897,64.0957512 C37.2414544,64.1592634 37.2706759,64.2197512 37.2833122,64.2847756 C37.3385962,64.5403366 37.3678177,64.8042146 37.3678177,65.0748976 C37.3678177,67.2585073 35.5118578,69.0345805 33.2302117,69.0345805 M33.2302117,48.834678 C30.9501452,48.834678 29.0941853,47.0586049 29.0941853,44.8749951 C29.0941853,42.6913854 30.9501452,40.9145561 33.2302117,40.9145561 C35.5118578,40.9145561 37.3678177,42.6913854 37.3678177,44.8749951 C37.3678177,47.0586049 35.5118578,48.834678 33.2302117,48.834678 M55.3090266,30.7964585 C55.3090266,28.6128488 57.1649865,26.8360195 59.4458428,26.8360195 C61.7259092,26.8360195 63.5818691,28.6128488 63.5818691,30.7964585 C63.5818691,32.9793122 61.7259092,34.7568976 59.4458428,34.7568976 C57.1649865,34.7568976 55.3090266,32.9793122 55.3090266,30.7964585 M85.599082,40.9145561 C87.880728,40.9145561 89.7351083,42.6913854 89.7351083,44.8749951 C89.7351083,47.0586049 87.880728,48.834678 85.599082,48.834678 C83.3190155,48.834678 81.4638453,47.0586049 81.4638453,44.8749951 C81.4638453,42.6913854 83.3190155,40.9145561 85.599082,40.9145561 M85.599082,58.2692634 C81.6802424,58.2692634 78.4911504,61.3216293 78.4911504,65.0741415 L78.4911504,65.0748976 C78.4911504,65.5928244 78.5590707,66.1228488 78.6933316,66.6543854 L72.6768624,72.4128244 L72.6768624,72.4135805 L72.6768624,87.9218976 L67.8095089,87.9218976 L67.8095089,62.2864098 L80.7806941,49.8659951 C81.2750903,50.3052878 81.822401,50.6704829 82.4084105,50.9547756 C83.3853562,51.4288488 84.4705004,51.6791171 85.599082,51.6791171 C89.5187113,51.6791171 92.7070135,48.6267512 92.7070135,44.8749951 C92.7070135,41.8264098 90.6014862,39.2390439 87.7101376,38.3763366 C87.0419921,38.1767268 86.3327784,38.069361 85.5967126,38.069361 C81.6770833,38.069361 78.4895709,41.1217268 78.4895709,44.8734829 C78.4895709,45.7770195 78.6767464,46.6593854 79.0487282,47.5001659 L64.8360242,61.1084098 L64.8360242,87.9218976 L60.9306107,87.9218976 L60.9306107,37.4433122 C64.2105262,36.7779463 66.5529845,34.0378488 66.5529845,30.7964585 C66.5529845,27.0447024 63.3654721,23.9923366 59.4466325,23.9923366 L59.4458428,23.9923366 L59.445053,23.9923366 C55.5254236,23.9923366 52.3379112,27.0447024 52.3379112,30.7964585 C52.3379112,34.0378488 54.6795798,36.7787024 57.9587055,37.4433122 L57.9587055,87.9218976 L53.9932695,87.9218976 L53.9932695,61.1084098 L39.778986,47.501678 C40.150178,46.6616537 40.3381433,45.7800439 40.3381433,44.8749951 C40.3381433,41.1224829 37.1498411,38.0701171 33.2302117,38.0701171 C29.3121619,38.0701171 26.1238597,41.1224829 26.1238597,44.8749951 C26.1238597,48.6267512 29.3121619,51.6791171 33.2302117,51.6791171 C35.0364161,51.6791171 36.7304731,51.0387024 38.0485995,49.865239 L51.0213644,62.2864098 L51.0213644,87.9218976 L46.1563801,87.9218976 L46.1563801,72.4128244 L40.1391212,66.6543854 C40.2718026,66.1251171 40.338933,65.5950927 40.338933,65.0741415 C40.338933,61.3216293 37.1506309,58.2692634 33.2317913,58.2692634 C32.0076475,58.2692634 30.8537933,58.5671659 29.8468363,59.0926537 C27.631531,60.2457024 26.12307,62.4950927 26.12307,65.0748976 C26.12307,68.8274098 29.3113721,71.8797756 33.229422,71.8797756 C34.0349875,71.8797756 34.8231782,71.7474585 35.5647724,71.4987024 C36.8015524,71.084361 37.9096,70.3448976 38.7507052,69.3498732 L43.1821056,73.5915805 L43.1821056,87.9218976 L31.6056545,87.9218976 L31.6056545,91.2850195 L87.7985919,91.2850195 L87.7985919,87.9218976 L75.6463983,87.9218976 L75.6463983,73.5915805 L80.0793782,69.3498732 C81.4267261,70.9422146 83.4532764,71.8797756 85.599082,71.8797756 C89.5187113,71.8797756 92.7070135,68.8274098 92.7070135,65.0748976 L92.7070135,65.0741415 C92.7070135,61.3216293 89.5187113,58.2692634 85.599082,58.2692634" id="Fill-1"></path>
                <g id="Group-5" transform="translate(0.000000, 0.349317)">
                    <path d="M59.4148048,2.67514878 C27.9598385,2.67514878 2.3697054,27.174978 2.3697054,57.2888317 C2.3697054,87.4034415 27.9598385,111.902515 59.4148048,111.902515 C90.8697711,111.902515 116.460694,87.4034415 116.460694,57.2888317 C116.460694,27.174978 90.8697711,2.67514878 59.4148048,2.67514878 M59.4148048,114.170807 C26.6535586,114.170807 0.000394885085,88.6540268 0.000394885085,57.2888317 C0.000394885085,25.9243927 26.6535586,0.406856098 59.4148048,0.406856098 C92.176051,0.406856098 118.830004,25.9243927 118.830004,57.2888317 C118.830004,88.6540268 92.176051,114.170807 59.4148048,114.170807" id="Fill-3"></path>
                </g>
            </g>
        </g>
    </g>
</svg>